HIERARCHY
ROOT Joint1
{
	OFFSET 0.000000 0.000000 0.000000
	CHANNELS 6 Xposition Yposition Zposition Xrotation Yrotation Zrotation
	JOINT Joint2
	{
		OFFSET -0.000000 0.000000 1.456275
		CHANNELS 6 Xposition Yposition Zposition Xrotation Yrotation Zrotation
		JOINT Joint3
		{
			OFFSET -0.000000 0.000002 1.471446
			CHANNELS 6 Xposition Yposition Zposition Xrotation Yrotation Zrotation
			JOINT Joint4
			{
				OFFSET 0.625745 0.000000 0.917755
				CHANNELS 6 Xposition Yposition Zposition Xrotation Yrotation Zrotation
				JOINT Joint5
				{
					OFFSET -0.629534 0.000001 0.940221
					CHANNELS 6 Xposition Yposition Zposition Xrotation Yrotation Zrotation
					JOINT Joint6
					{
						OFFSET -0.000001 0.113772 1.960660
						CHANNELS 6 Xposition Yposition Zposition Xrotation Yrotation Zrotation
						JOINT Joint7
						{
							OFFSET -0.669733 -0.113771 0.388340
							CHANNELS 6 Xposition Yposition Zposition Xrotation Yrotation Zrotation
							End Site
							{
								OFFSET 0.005509 0.005509 0.438980
							}
						}
					}
				}
			}
		}
	}
}
MOTION
Frames: 27
Frame Time: 0.041667
0.000000 0.000000 0.000000 -0.000000 1.019410 -33.638402 -0.000000 0.000000 1.456275 -0.000000 16.685394 -0.000002 -0.000000 0.000002 1.471445 -0.000002 -1.133455 53.557706 0.625745 0.000000 0.917755 0.000004 143.776233 -0.000002 -0.629534 0.000001 0.940220 -0.000002 1.709736 56.347712 -0.000001 0.113772 1.960660 -88.303868 97.329397 0.000010 -0.669733 -0.113771 0.388340 -0.634953 3.563736 131.007686 
0.000000 0.000000 0.000000 -0.000000 1.019410 -32.237202 -0.000000 0.000000 1.456275 0.000000 14.115885 0.000003 -0.000000 0.000002 1.471446 -0.000001 -1.133456 51.324862 0.625745 0.000000 0.917755 0.000003 143.411692 -0.000004 -0.629533 0.000001 0.940221 -0.000000 1.709735 53.999387 -0.000001 0.113772 1.960661 -88.303875 97.022803 0.000026 -0.669733 -0.113771 0.388341 -0.637881 3.563934 131.172827 
0.000000 0.000000 0.000000 -0.000000 1.019410 -30.836071 -0.000000 0.000000 1.456275 0.000000 11.546477 -0.000001 -0.000000 0.000002 1.471446 -0.000001 -1.133457 49.092097 0.625745 0.000000 0.917754 0.000002 143.047179 0.000000 -0.629534 0.000001 0.940221 -0.000002 1.709738 51.651154 -0.000001 0.113772 1.960660 -88.303875 96.716223 0.000006 -0.669733 -0.113771 0.388340 -0.640807 3.564128 131.337953 
0.000000 0.000000 0.000000 -0.000000 1.019410 -29.839170 -0.000000 0.000000 1.456275 -0.000000 9.718361 0.000000 -0.000000 0.000002 1.471446 -0.000002 -1.133455 47.503501 0.625744 0.000000 0.917755 0.000003 142.787823 0.000002 -0.629534 0.000001 0.940221 -0.000001 1.709739 49.980398 -0.000001 0.113772 1.960660 -88.303848 96.498101 0.000013 -0.669733 -0.113771 0.388340 -0.642889 3.564253 131.455433 
0.000000 0.000000 0.000000 -0.000000 1.019410 -29.029257 -0.000000 0.000000 1.456275 -0.000000 8.233152 0.000001 -0.000000 0.000002 1.471446 -0.000002 -1.133456 46.212882 0.625744 0.000000 0.917755 0.000003 142.577125 -0.000000 -0.629534 0.000001 0.940221 -0.000001 1.709738 48.623031 -0.000001 0.113772 1.960660 -88.303868 96.320885 -0.000002 -0.669733 -0.113771 0.388340 -0.644582 3.564363 131.550878 
0.000000 0.000000 0.000000 -0.000000 1.019410 -28.033733 -0.000000 -0.000000 1.456275 0.000000 6.407564 0.000002 -0.000000 0.000002 1.471446 -0.000002 -1.133456 44.626489 0.625745 0.000000 0.917755 0.000003 142.318125 -0.000001 -0.629533 0.000001 0.940221 -0.000001 1.709737 46.954590 -0.000001 0.113772 1.960660 -88.303868 96.103057 0.000002 -0.669733 -0.113771 0.388341 -0.646661 3.564483 131.668220 
0.000000 0.000000 0.000000 -0.000000 1.019410 -26.634488 -0.000000 -0.000000 1.456275 -0.000000 3.841636 -0.000002 -0.000000 0.000002 1.471446 -0.000001 -1.133456 42.396750 0.625744 0.000000 0.917755 0.000002 141.954089 -0.000000 -0.629534 0.000001 0.940220 0.000000 1.709734 44.609533 -0.000001 0.113772 1.960660 -88.303875 95.796887 0.000011 -0.669733 -0.113771 0.388340 -0.649584 3.564648 131.833142 
0.000000 0.000000 0.000000 -0.000000 1.019410 -25.231393 -0.000000 -0.000000 1.456275 -0.000000 1.268649 -0.000001 -0.000000 0.000002 1.471446 -0.000001 -1.133456 40.160877 0.625745 0.000000 0.917755 0.000003 141.589084 -0.000002 -0.629533 0.000001 0.940220 0.000001 1.709737 42.258032 -0.000002 0.113772 1.960660 -88.303862 95.489883 -0.000011 -0.669733 -0.113771 0.388340 -0.652517 3.564803 131.998487 
0.000000 0.000000 0.000000 -0.000000 1.019410 -24.226464 -0.000000 0.000000 1.456275 -0.000000 -0.574190 -0.000001 -0.000000 0.000002 1.471445 -0.000001 -1.133457 38.559491 0.625744 0.000000 0.917755 0.000003 141.327624 -0.000001 -0.629534 0.000001 0.940220 0.000000 1.709735 40.573827 -0.000001 0.113772 1.960660 -88.303868 95.269999 0.000035 -0.669733 -0.113771 0.388341 -0.654620 3.564913 132.116923 
0.000000 0.000000 0.000000 -0.000000 1.019410 -23.412282 0.000000 0.000000 1.456275 -0.000000 -2.067244 -0.000001 -0.000000 0.000002 1.471446 -0.000001 -1.133456 37.262059 0.625744 0.000000 0.917755 0.000004 141.115806 0.000001 -0.629534 0.000001 0.940221 0.000000 1.709736 39.209285 -0.000002 0.113772 1.960660 -88.303889 95.091854 0.000034 -0.669733 -0.113771 0.388340 -0.656319 3.565000 132.212860 
0.000000 0.000000 0.000000 -0.000000 1.019410 -22.429059 -0.000000 -0.000000 1.456275 -0.000000 -3.870265 -0.000001 -0.000000 0.000002 1.471446 -0.000001 -1.133457 35.695272 0.625744 0.000000 0.917755 0.000003 140.860002 -0.000002 -0.629534 0.000001 0.940221 -0.000001 1.709736 37.561471 -0.000001 0.113772 1.960660 -88.303807 94.876717 0.000076 -0.669733 -0.113771 0.388340 -0.658378 3.565096 132.328741 
0.000000 0.000000 0.000000 -0.000000 1.019410 -21.055825 -0.000000 0.000000 1.456275 -0.000000 -6.388502 0.000002 -0.000000 0.000002 1.471446 -0.000001 -1.133457 33.506975 0.625745 0.000000 0.917755 0.000003 140.502742 -0.000001 -0.629534 0.000001 0.940221 -0.000000 1.709740 35.260001 -0.000001 0.113772 1.960661 -88.303834 94.576243 0.000046 -0.669733 -0.113771 0.388340 -0.661253 3.565223 132.490575 
0.000000 0.000000 0.000000 -0.000000 1.019410 -19.626730 -0.000000 0.000000 1.456275 -0.000000 -9.009179 -0.000000 -0.000000 0.000002 1.471446 -0.000001 -1.133457 31.229667 0.625745 0.000000 0.917755 0.000003 140.130948 0.000000 -0.629533 0.000001 0.940221 -0.000001 1.709739 32.864910 -0.000001 0.113772 1.960661 -88.303855 94.263543 0.000006 -0.669733 -0.113771 0.388340 -0.664241 3.565351 132.659008 
0.000000 0.000000 0.000000 -0.000000 1.019410 -18.506953 -0.000000 0.000000 1.456275 0.000000 -11.062614 0.000002 -0.000000 0.000002 1.471446 -0.000001 -1.133456 29.445277 0.625744 0.000000 0.917755 0.000005 139.839627 -0.000002 -0.629534 0.000001 0.940221 -0.000001 1.709739 30.988240 -0.000001 0.113772 1.960661 -88.303834 94.018531 0.000045 -0.669733 -0.113771 0.388341 -0.666576 3.565443 132.790967 
0.000000 0.000000 0.000000 -0.000000 1.019410 -17.630697 -0.000000 -0.000000 1.456275 0.000000 -12.669492 0.000000 -0.000000 0.000002 1.471446 -0.000001 -1.133458 28.048933 0.625745 0.000000 0.917755 0.000005 139.611662 -0.000001 -0.629534 0.000001 0.940221 -0.000001 1.709738 29.519678 -0.000002 0.113772 1.960661 -88.303882 93.826800 0.000062 -0.669733 -0.113771 0.388341 -0.668413 3.565512 132.894239 
0.000000 0.000000 0.000000 -0.000000 1.019410 -16.824392 -0.000000 -0.000000 1.456275 0.000000 -14.148095 -0.000001 -0.000000 0.000002 1.471446 -0.000000 -1.133458 26.764055 0.625744 0.000000 0.917755 0.000003 139.401893 0.000000 -0.629534 0.000001 0.940221 -0.000000 1.709740 28.168354 -0.000001 0.113772 1.960661 -88.303903 93.650377 0.000051 -0.669733 -0.113771 0.388340 -0.670096 3.565572 132.989275 
0.000000 0.000000 0.000000 -0.000000 1.019410 -15.949011 -0.000000 0.000000 1.456275 0.000001 -15.753369 -0.000000 -0.000000 0.000002 1.471445 -0.000001 -1.133456 25.369109 0.625744 0.000000 0.917755 0.000004 139.174161 -0.000000 -0.629534 0.000001 0.940221 -0.000000 1.709733 26.701260 -0.000001 0.113772 1.960660 -88.303882 93.458838 0.000053 -0.669733 -0.113771 0.388340 -0.671931 3.565635 133.092424 
0.000000 0.000000 0.000000 -0.000000 1.019410 -15.003677 -0.000000 -0.000000 1.456275 -0.000000 -17.486917 0.000001 -0.000000 0.000002 1.471446 -0.000000 -1.133458 23.862687 0.625745 0.000000 0.917755 0.000003 138.928220 -0.000001 -0.629533 0.000001 0.940220 -0.000000 1.709737 25.116936 -0.000001 0.113772 1.960660 -88.303821 93.251992 -0.000017 -0.669733 -0.113771 0.388339 -0.673910 3.565698 133.203825 
0.000000 0.000000 0.000000 -0.000000 1.019410 -14.022056 -0.000000 0.000000 1.456275 -0.000000 -19.287008 0.000001 -0.000000 0.000002 1.471446 -0.000000 -1.133457 22.298443 0.625745 0.000000 0.917755 0.000003 138.672839 -0.000002 -0.629534 0.000001 0.940221 0.000000 1.709739 23.471793 -0.000001 0.113772 1.960660 -88.303814 93.037203 0.000070 -0.669733 -0.113771 0.388340 -0.675966 3.565761 133.319514 
0.000000 0.000000 0.000000 -0.000000 1.019410 -13.038685 -0.000000 -0.000000 1.456275 0.000000 -21.090313 0.000000 -0.000000 0.000002 1.471445 -0.000000 -1.133458 20.731414 0.625745 0.000000 0.917755 0.000003 138.416994 -0.000001 -0.629534 0.000001 0.940221 -0.000000 1.709739 21.823718 -0.000001 0.113772 1.960660 -88.303780 92.822039 0.000064 -0.669733 -0.113771 0.388340 -0.678019 3.565819 133.435409 
0.000000 0.000000 0.000000 -0.000000 1.019410 -12.091600 -0.000000 -0.000000 1.456275 0.000000 -22.827073 0.000001 -0.000000 0.000002 1.471446 -0.000001 -1.133458 19.222212 0.625745 0.000000 0.917755 0.000004 138.170629 -0.000002 -0.629533 0.000001 0.940221 -0.000000 1.709738 20.236459 -0.000001 0.113772 1.960661 -88.303868 92.614811 0.000091 -0.669733 -0.113771 0.388340 -0.680002 3.565872 133.547028 
0.000000 0.000000 0.000000 -0.000000 1.019410 -11.219718 -0.000000 0.000000 1.456275 0.000000 -24.425923 -0.000000 -0.000001 0.000002 1.471445 -0.000001 -1.133458 17.832842 0.625745 0.000000 0.917755 0.000004 137.943785 -0.000001 -0.629534 0.000001 0.940221 0.000001 1.709737 18.775232 -0.000001 0.113772 1.960661 -88.303773 92.424037 0.000063 -0.669733 -0.113771 0.388341 -0.681827 3.565916 133.649781 
0.000000 0.000000 0.000000 -0.000000 1.019410 -10.448749 -0.000000 0.000000 1.456275 -0.000000 -25.839726 -0.000000 -0.000000 0.000002 1.471445 0.000000 -1.133457 16.604272 0.625744 0.000000 0.917755 0.000005 137.743209 -0.000001 -0.629534 0.000001 0.940221 0.000000 1.709735 17.483128 -0.000001 0.113772 1.960660 -88.303834 92.255345 0.000173 -0.669733 -0.113771 0.388340 -0.683444 3.565953 133.740650 
0.000000 0.000000 0.000000 -0.000000 1.019410 -9.751577 -0.000000 0.000000 1.456275 0.000000 -27.118197 0.000001 -0.000000 0.000002 1.471446 -0.000000 -1.133459 15.493307 0.625745 0.000000 0.917755 0.000003 137.561827 -0.000001 -0.629534 0.000001 0.940221 0.000001 1.709735 16.314711 -0.000001 0.113772 1.960661 -88.303759 92.102799 0.000096 -0.669733 -0.113771 0.388341 -0.684903 3.565983 133.822817 
0.000000 0.000000 0.000000 -0.000000 1.019410 -9.087895 -0.000000 0.000000 1.456275 0.000000 -28.335262 0.000000 -0.000000 0.000002 1.471446 0.000000 -1.133458 14.435711 0.625745 0.000000 0.917755 0.000004 137.389173 -0.000001 -0.629534 0.000001 0.940221 0.000000 1.709735 15.202408 -0.000001 0.113772 1.960661 -88.303752 91.957583 0.000000 -0.669733 -0.113771 0.388341 -0.686289 3.566011 133.901023 
0.000000 0.000000 0.000000 -0.000000 1.019410 -8.417385 -0.000000 -0.000000 1.456275 -0.000001 -29.564839 0.000000 -0.000000 0.000002 1.471445 -0.000000 -1.133460 13.367232 0.625744 0.000000 0.917755 0.000003 137.214730 -0.000001 -0.629533 0.000001 0.940221 0.000000 1.709736 14.078673 -0.000001 0.113772 1.960661 -88.303800 91.810863 0.000061 -0.669733 -0.113771 0.388339 -0.687694 3.566037 133.980048 
0.000000 0.000000 0.000000 -0.000000 1.019410 -7.711519 -0.000000 0.000000 1.456275 -0.000000 -30.859252 -0.000001 -0.000000 0.000002 1.471446 0.000001 -1.133460 12.242411 0.625745 0.000000 0.917754 0.000003 137.031107 -0.000001 -0.629534 0.000001 0.940221 -0.000000 1.709738 12.895680 -0.000001 0.113772 1.960661 -88.303855 91.656412 0.000090 -0.669733 -0.113771 0.388340 -0.689171 3.566063 134.063226 
